# xmcd
#
# Track frame offsets: 
#        150
#        9476
#        19282
#        31637
#        42184
#        52891
#        65095
#        77221
#        89296
#        99649
#        111114
#        124877
#        141323
#        155414
#        166991
#        176653
#        188406
#        200269
#        210134
#        222428
#
# Disc length: 3170 seconds
#
# Revision: 0
# Processed by: cddbd v1.5.2PL0 Copyright (c) Steve Scherf et al.
# Submitted via: ExactAudioCopy v0.99pb5
#
DISCID=090c6014
DTITLE=Various Artist - The Roots Of Paul Weller
DYEAR=2009
DGENRE=Rock and Roll
TTITLE0=Little Richard - Good Golly Miss Molly
TTITLE1=Larry Williams - Dizzy Miss Lizzy
TTITLE2=Jimmy McCraklin - The Walk
TTITLE3=Buddy Holly - Not Fade Away
TTITLE4=Little Richard - Slippin and Slidin
TTITLE5=Larry Williams - Slow Down
TTITLE6=Howlin' Wolf - Louis 
TTITLE7=Little Willie John - Fever
TTITLE8=The Orioles - Don't Go to Strangers
TTITLE9=Julie London - September In The Rain
TTITLE10=Ella Fitzgerald - Night and Day
TTITLE11=Tommy Dorsey and His Orchestra feat. Sinatra - Blue Moon
TTITLE12=Slim Whitman - Danny boy
TTITLE13=Jill Corey - Let It Be Me
TTITLE14=Roy Acuff - Corrine Corinna
TTITLE15=Hank Williams - Take These Chains from My Heart
TTITLE16=Big Bill Broonzy - Glory Of Love
TTITLE17=Jimmy Reed - Aint That Lovin' You
TTITLE18=A.L. Loyd - John Barleycorn 
TTITLE19=Vera Lynn - We'll Meet Again
EXTD=
EXTT0=
EXTT1=
EXTT2=
EXTT3=
EXTT4=
EXTT5=
EXTT6=
EXTT7=
EXTT8=
EXTT9=
EXTT10=
EXTT11=
EXTT12=
EXTT13=
EXTT14=
EXTT15=
EXTT16=
EXTT17=
EXTT18=
EXTT19=
PLAYORDER=
